# xmcd
#
# Track frame offsets:
#	150
#	19249
#	32718
#	42450
#	55395
#	70378
#	83813
#	106699
#	118634
#	142009
#	160024
#
# Disc length: 2310 seconds
#
# Revision: 1
# Processed by: cddbd v1.5.2PL0 Copyright (c) Steve Scherf et al.
# Submitted via: audiograbber 1.83.01
#
DISCID=9309040b
DTITLE=Jennings, Waylon - The Box Set Series - CD3
DYEAR=1900
DGENRE=Country
TTITLE0=I've Always Been Crazy
TTITLE1=Don't You Think This Outlaw Bit's Done Got Out Of Hand
TTITLE2=Theme From The Dukes Of Hazzard (Good Ol'  Boys)
TTITLE3=Shine
TTITLE4=Women Do Know How To Carry On
TTITLE5=Never Could Toe The Mark
TTITLE6=Never Say Die (Live)
TTITLE7=I Got You (with Anita Carter)
TTITLE8=MacArthur Park (with The Kimberlys)
TTITLE9=Suspicious Minds (with Jessi Colter)
TTITLE10=Good Hearted Woman (with Willie Nelson)
EXTD=
EXTT0=
EXTT1=
EXTT2=
EXTT3=
EXTT4=
EXTT5=
EXTT6=
EXTT7=
EXTT8=
EXTT9=
EXTT10=
PLAYORDER=
